<mxfile host="app.diagrams.net" modified="2023-11-08T13:42:20.337Z" agent="Mozilla/5.0 (Windows NT 10.0; Win64; x64) AppleWebKit/537.36 (KHTML, like Gecko) Chrome/118.0.0.0 Safari/537.36 Edg/118.0.2088.76" etag="JG_cvq_uEvmH6YMqgelI" version="22.0.8" type="device" pages="5">
  <diagram name="architecture" id="R6eDpJADS-D8b3B1f5UI">
    <mxGraphModel dx="1794" dy="905" grid="1" gridSize="10" guides="1" tooltips="1" connect="1" arrows="1" fold="1" page="1" pageScale="1" pageWidth="850" pageHeight="1100" math="0" shadow="0">
      <root>
        <mxCell id="0" />
        <mxCell id="1" parent="0" />
        <mxCell id="pXu4XKbpGgy5-oL7BMyk-1" value="" style="rounded=1;whiteSpace=wrap;html=1;fillColor=#dae8fc;strokeColor=#6c8ebf;" parent="1" vertex="1">
          <mxGeometry x="200" y="80" width="360" height="290" as="geometry" />
        </mxCell>
        <mxCell id="pXu4XKbpGgy5-oL7BMyk-3" value="MVC Controllers" style="rounded=1;whiteSpace=wrap;html=1;fillColor=#fff2cc;strokeColor=#d6b656;" parent="1" vertex="1">
          <mxGeometry x="240" y="130" width="130" height="60" as="geometry" />
        </mxCell>
        <mxCell id="pXu4XKbpGgy5-oL7BMyk-4" value="Web API Services" style="rounded=1;whiteSpace=wrap;html=1;fillColor=#fff2cc;strokeColor=#d6b656;" parent="1" vertex="1">
          <mxGeometry x="390" y="130" width="130" height="60" as="geometry" />
        </mxCell>
        <mxCell id="pXu4XKbpGgy5-oL7BMyk-5" value="" style="endArrow=classic;html=1;rounded=0;exitX=1;exitY=0.5;exitDx=0;exitDy=0;entryX=0;entryY=0.5;entryDx=0;entryDy=0;" parent="1" source="pXu4XKbpGgy5-oL7BMyk-3" target="pXu4XKbpGgy5-oL7BMyk-4" edge="1">
          <mxGeometry width="50" height="50" relative="1" as="geometry">
            <mxPoint x="430" y="100" as="sourcePoint" />
            <mxPoint x="480" y="50" as="targetPoint" />
          </mxGeometry>
        </mxCell>
        <mxCell id="pXu4XKbpGgy5-oL7BMyk-6" value="Authentication" style="rounded=1;whiteSpace=wrap;html=1;fillColor=#e1d5e7;strokeColor=#9673a6;" parent="1" vertex="1">
          <mxGeometry x="240" y="200" width="280" height="40" as="geometry" />
        </mxCell>
        <mxCell id="pXu4XKbpGgy5-oL7BMyk-7" value="Logging" style="rounded=1;whiteSpace=wrap;html=1;fillColor=#e1d5e7;strokeColor=#9673a6;" parent="1" vertex="1">
          <mxGeometry x="240" y="250" width="280" height="40" as="geometry" />
        </mxCell>
        <mxCell id="pXu4XKbpGgy5-oL7BMyk-8" value="Configuration" style="rounded=1;whiteSpace=wrap;html=1;fillColor=#e1d5e7;strokeColor=#9673a6;" parent="1" vertex="1">
          <mxGeometry x="240" y="300" width="280" height="40" as="geometry" />
        </mxCell>
        <mxCell id="pXu4XKbpGgy5-oL7BMyk-9" value="UsersDb" style="shape=cylinder3;whiteSpace=wrap;html=1;boundedLbl=1;backgroundOutline=1;size=15;fillColor=#ffe6cc;strokeColor=#d79b00;" parent="1" vertex="1">
          <mxGeometry x="320" y="410" width="120" height="70" as="geometry" />
        </mxCell>
        <mxCell id="pXu4XKbpGgy5-oL7BMyk-10" value="" style="endArrow=classic;html=1;rounded=0;entryX=1;entryY=0.5;entryDx=0;entryDy=0;entryPerimeter=0;strokeWidth=2;fillColor=#d5e8d4;strokeColor=#82b366;" parent="1" source="pXu4XKbpGgy5-oL7BMyk-6" target="pXu4XKbpGgy5-oL7BMyk-9" edge="1">
          <mxGeometry width="50" height="50" relative="1" as="geometry">
            <mxPoint x="435" y="120" as="sourcePoint" />
            <mxPoint x="485" y="70" as="targetPoint" />
            <Array as="points">
              <mxPoint x="605" y="220" />
              <mxPoint x="605" y="445" />
            </Array>
          </mxGeometry>
        </mxCell>
        <mxCell id="pXu4XKbpGgy5-oL7BMyk-11" value="" style="rounded=1;whiteSpace=wrap;html=1;fillColor=#dae8fc;strokeColor=#6c8ebf;" parent="1" vertex="1">
          <mxGeometry x="720" y="80" width="360" height="290" as="geometry" />
        </mxCell>
        <mxCell id="pXu4XKbpGgy5-oL7BMyk-12" value="API Controllers&lt;br&gt;(RESTfull API)" style="rounded=1;whiteSpace=wrap;html=1;fillColor=#fff2cc;strokeColor=#d6b656;" parent="1" vertex="1">
          <mxGeometry x="760" y="130" width="130" height="60" as="geometry" />
        </mxCell>
        <mxCell id="pXu4XKbpGgy5-oL7BMyk-21" style="edgeStyle=orthogonalEdgeStyle;rounded=0;orthogonalLoop=1;jettySize=auto;html=1;entryX=1;entryY=0.5;entryDx=0;entryDy=0;entryPerimeter=0;strokeWidth=2;fillColor=#d5e8d4;strokeColor=#82b366;" parent="1" source="pXu4XKbpGgy5-oL7BMyk-13" target="pXu4XKbpGgy5-oL7BMyk-20" edge="1">
          <mxGeometry relative="1" as="geometry">
            <Array as="points">
              <mxPoint x="1130" y="160" />
              <mxPoint x="1130" y="445" />
            </Array>
          </mxGeometry>
        </mxCell>
        <mxCell id="pXu4XKbpGgy5-oL7BMyk-13" value="Database Services" style="rounded=1;whiteSpace=wrap;html=1;fillColor=#fff2cc;strokeColor=#d6b656;" parent="1" vertex="1">
          <mxGeometry x="910" y="130" width="130" height="60" as="geometry" />
        </mxCell>
        <mxCell id="pXu4XKbpGgy5-oL7BMyk-14" value="" style="endArrow=classic;html=1;rounded=0;exitX=1;exitY=0.5;exitDx=0;exitDy=0;entryX=0;entryY=0.5;entryDx=0;entryDy=0;" parent="1" source="pXu4XKbpGgy5-oL7BMyk-12" target="pXu4XKbpGgy5-oL7BMyk-13" edge="1">
          <mxGeometry width="50" height="50" relative="1" as="geometry">
            <mxPoint x="950" y="100" as="sourcePoint" />
            <mxPoint x="1000" y="50" as="targetPoint" />
          </mxGeometry>
        </mxCell>
        <mxCell id="pXu4XKbpGgy5-oL7BMyk-15" value="Authentication" style="rounded=1;whiteSpace=wrap;html=1;fillColor=#e1d5e7;strokeColor=#9673a6;" parent="1" vertex="1">
          <mxGeometry x="760" y="200" width="280" height="40" as="geometry" />
        </mxCell>
        <mxCell id="pXu4XKbpGgy5-oL7BMyk-16" value="Logging" style="rounded=1;whiteSpace=wrap;html=1;fillColor=#e1d5e7;strokeColor=#9673a6;" parent="1" vertex="1">
          <mxGeometry x="760" y="250" width="280" height="40" as="geometry" />
        </mxCell>
        <mxCell id="pXu4XKbpGgy5-oL7BMyk-17" value="Configuration" style="rounded=1;whiteSpace=wrap;html=1;fillColor=#e1d5e7;strokeColor=#9673a6;" parent="1" vertex="1">
          <mxGeometry x="760" y="300" width="280" height="40" as="geometry" />
        </mxCell>
        <mxCell id="pXu4XKbpGgy5-oL7BMyk-19" value="" style="endArrow=classic;html=1;rounded=0;exitX=1;exitY=0.5;exitDx=0;exitDy=0;entryX=0;entryY=0.5;entryDx=0;entryDy=0;strokeWidth=2;shadow=0;fillColor=#dae8fc;strokeColor=#6c8ebf;" parent="1" source="pXu4XKbpGgy5-oL7BMyk-4" target="pXu4XKbpGgy5-oL7BMyk-12" edge="1">
          <mxGeometry width="50" height="50" relative="1" as="geometry">
            <mxPoint x="435" y="-20" as="sourcePoint" />
            <mxPoint x="485" y="-70" as="targetPoint" />
          </mxGeometry>
        </mxCell>
        <mxCell id="pXu4XKbpGgy5-oL7BMyk-20" value="TodoListDb" style="shape=cylinder3;whiteSpace=wrap;html=1;boundedLbl=1;backgroundOutline=1;size=15;fillColor=#ffe6cc;strokeColor=#d79b00;" parent="1" vertex="1">
          <mxGeometry x="850" y="410" width="120" height="70" as="geometry" />
        </mxCell>
        <mxCell id="pXu4XKbpGgy5-oL7BMyk-23" style="edgeStyle=orthogonalEdgeStyle;rounded=0;orthogonalLoop=1;jettySize=auto;html=1;strokeWidth=2;fillColor=#dae8fc;strokeColor=#6c8ebf;" parent="1" source="pXu4XKbpGgy5-oL7BMyk-22" target="pXu4XKbpGgy5-oL7BMyk-3" edge="1">
          <mxGeometry relative="1" as="geometry" />
        </mxCell>
        <mxCell id="pXu4XKbpGgy5-oL7BMyk-22" value="Browser" style="shape=umlActor;verticalLabelPosition=bottom;verticalAlign=top;html=1;outlineConnect=0;" parent="1" vertex="1">
          <mxGeometry x="50" y="130" width="30" height="60" as="geometry" />
        </mxCell>
        <mxCell id="pXu4XKbpGgy5-oL7BMyk-25" value="" style="rounded=1;whiteSpace=wrap;html=1;dashed=1;fillColor=none;strokeColor=#7EA6E0;" parent="1" vertex="1">
          <mxGeometry x="200" y="400" width="880" height="90" as="geometry" />
        </mxCell>
        <mxCell id="pXu4XKbpGgy5-oL7BMyk-27" value="SQL Server" style="text;html=1;strokeColor=none;fillColor=none;align=center;verticalAlign=middle;whiteSpace=wrap;rounded=0;" parent="1" vertex="1">
          <mxGeometry x="585" y="460" width="130" height="30" as="geometry" />
        </mxCell>
        <mxCell id="pXu4XKbpGgy5-oL7BMyk-28" value="TodoListApp.WebApp&lt;br&gt;(ASP.NET Core MVC)" style="text;html=1;strokeColor=none;fillColor=none;align=center;verticalAlign=middle;whiteSpace=wrap;rounded=0;" parent="1" vertex="1">
          <mxGeometry x="280" y="90" width="200" height="30" as="geometry" />
        </mxCell>
        <mxCell id="pXu4XKbpGgy5-oL7BMyk-29" value="TodoListApp.WebApi&lt;br&gt;(ASP.NET Core Web API)" style="text;html=1;strokeColor=none;fillColor=none;align=center;verticalAlign=middle;whiteSpace=wrap;rounded=0;" parent="1" vertex="1">
          <mxGeometry x="800" y="90" width="200" height="30" as="geometry" />
        </mxCell>
        <mxCell id="pXu4XKbpGgy5-oL7BMyk-31" value="" style="endArrow=classic;html=1;rounded=0;entryX=1;entryY=0.5;entryDx=0;entryDy=0;strokeWidth=2;fillColor=#d5e8d4;strokeColor=#82b366;exitX=1;exitY=0.75;exitDx=0;exitDy=0;" parent="1" source="pXu4XKbpGgy5-oL7BMyk-4" target="pXu4XKbpGgy5-oL7BMyk-7" edge="1">
          <mxGeometry width="50" height="50" relative="1" as="geometry">
            <mxPoint x="530" y="185" as="sourcePoint" />
            <mxPoint x="530" y="330" as="targetPoint" />
            <Array as="points">
              <mxPoint x="550" y="175" />
              <mxPoint x="550" y="270" />
            </Array>
          </mxGeometry>
        </mxCell>
        <mxCell id="pXu4XKbpGgy5-oL7BMyk-32" style="edgeStyle=orthogonalEdgeStyle;rounded=0;orthogonalLoop=1;jettySize=auto;html=1;strokeWidth=2;fillColor=#d5e8d4;strokeColor=#82b366;exitX=1;exitY=0.75;exitDx=0;exitDy=0;entryX=1;entryY=0.5;entryDx=0;entryDy=0;" parent="1" source="pXu4XKbpGgy5-oL7BMyk-13" target="pXu4XKbpGgy5-oL7BMyk-16" edge="1">
          <mxGeometry relative="1" as="geometry">
            <mxPoint x="1050" y="170" as="sourcePoint" />
            <mxPoint x="970" y="455" as="targetPoint" />
            <Array as="points">
              <mxPoint x="1070" y="175" />
              <mxPoint x="1070" y="270" />
            </Array>
          </mxGeometry>
        </mxCell>
        <mxCell id="-L0DAWue2wzrVWmLCPdt-1" value="" style="endArrow=classic;html=1;rounded=0;entryX=0;entryY=0.25;entryDx=0;entryDy=0;strokeWidth=2;fillColor=#d5e8d4;strokeColor=#82b366;exitX=0;exitY=0.75;exitDx=0;exitDy=0;" parent="1" source="pXu4XKbpGgy5-oL7BMyk-3" target="pXu4XKbpGgy5-oL7BMyk-7" edge="1">
          <mxGeometry width="50" height="50" relative="1" as="geometry">
            <mxPoint x="530" y="185" as="sourcePoint" />
            <mxPoint x="530" y="280" as="targetPoint" />
            <Array as="points">
              <mxPoint x="210" y="175" />
              <mxPoint x="210" y="260" />
            </Array>
          </mxGeometry>
        </mxCell>
        <mxCell id="-L0DAWue2wzrVWmLCPdt-2" value="" style="endArrow=classic;html=1;rounded=0;entryX=0;entryY=0.25;entryDx=0;entryDy=0;strokeWidth=2;fillColor=#d5e8d4;strokeColor=#82b366;exitX=0;exitY=0.75;exitDx=0;exitDy=0;" parent="1" source="pXu4XKbpGgy5-oL7BMyk-12" edge="1">
          <mxGeometry width="50" height="50" relative="1" as="geometry">
            <mxPoint x="760" y="177.5" as="sourcePoint" />
            <mxPoint x="760" y="262.5" as="targetPoint" />
            <Array as="points">
              <mxPoint x="740" y="175" />
              <mxPoint x="740" y="262" />
            </Array>
          </mxGeometry>
        </mxCell>
        <mxCell id="-L0DAWue2wzrVWmLCPdt-3" value="" style="endArrow=classic;html=1;rounded=0;entryX=0;entryY=0.5;entryDx=0;entryDy=0;strokeWidth=2;fillColor=#d5e8d4;strokeColor=#82b366;" parent="1" source="pXu4XKbpGgy5-oL7BMyk-15" target="pXu4XKbpGgy5-oL7BMyk-17" edge="1">
          <mxGeometry width="50" height="50" relative="1" as="geometry">
            <mxPoint x="760" y="220" as="sourcePoint" />
            <mxPoint x="760" y="307.5" as="targetPoint" />
            <Array as="points">
              <mxPoint x="730" y="220" />
              <mxPoint x="730" y="320" />
            </Array>
          </mxGeometry>
        </mxCell>
      </root>
    </mxGraphModel>
  </diagram>
  <diagram id="YNI5sv3WXOpk9R705eF6" name="solution-design">
    <mxGraphModel dx="2644" dy="905" grid="1" gridSize="10" guides="1" tooltips="1" connect="1" arrows="1" fold="1" page="1" pageScale="1" pageWidth="850" pageHeight="1100" math="0" shadow="0">
      <root>
        <mxCell id="0" />
        <mxCell id="1" parent="0" />
        <mxCell id="_CMwv9b6OU8Ad90Qr5KC-3" value="" style="rounded=1;whiteSpace=wrap;html=1;fillColor=none;fontColor=#333333;strokeColor=#B5739D;dashed=1;" parent="1" vertex="1">
          <mxGeometry x="-840" y="40" width="800" height="360" as="geometry" />
        </mxCell>
        <mxCell id="hM7JFIb8vGbBTVGwy-LM-1" value="TodoListApp.WebApp&lt;br&gt;(ASP.NET Core Web App&lt;br&gt;(Model-View-Controller) project)" style="rounded=1;whiteSpace=wrap;html=1;fillColor=#fff2cc;strokeColor=#d6b656;glass=0;shadow=0;" parent="1" vertex="1">
          <mxGeometry x="-700" y="200" width="200" height="60" as="geometry" />
        </mxCell>
        <mxCell id="hM7JFIb8vGbBTVGwy-LM-2" value="TodoListApp.WebApi&lt;br&gt;(ASP.NET Core Web API project)" style="rounded=1;whiteSpace=wrap;html=1;fillColor=#fff2cc;strokeColor=#d6b656;" parent="1" vertex="1">
          <mxGeometry x="-380" y="200" width="200" height="60" as="geometry" />
        </mxCell>
        <mxCell id="hM7JFIb8vGbBTVGwy-LM-3" value="TodoListApp.Services.Database&lt;br&gt;(Class Library)" style="rounded=1;whiteSpace=wrap;html=1;fillColor=#dae8fc;strokeColor=#6c8ebf;" parent="1" vertex="1">
          <mxGeometry x="-260" y="320" width="200" height="60" as="geometry" />
        </mxCell>
        <mxCell id="_CMwv9b6OU8Ad90Qr5KC-4" value="TodoList solution" style="text;html=1;strokeColor=none;fillColor=none;align=center;verticalAlign=middle;whiteSpace=wrap;rounded=0;" parent="1" vertex="1">
          <mxGeometry x="-180" y="50" width="110" height="30" as="geometry" />
        </mxCell>
        <mxCell id="_CMwv9b6OU8Ad90Qr5KC-5" value="TodoListApp.WebApi.Models&lt;br&gt;(Class Library)" style="rounded=1;whiteSpace=wrap;html=1;fillColor=#dae8fc;strokeColor=#6c8ebf;" parent="1" vertex="1">
          <mxGeometry x="-540" y="60" width="200" height="60" as="geometry" />
        </mxCell>
        <mxCell id="_CMwv9b6OU8Ad90Qr5KC-6" value="" style="endArrow=classic;html=1;rounded=0;" parent="1" source="hM7JFIb8vGbBTVGwy-LM-2" target="_CMwv9b6OU8Ad90Qr5KC-5" edge="1">
          <mxGeometry width="50" height="50" relative="1" as="geometry">
            <mxPoint x="-420" y="570" as="sourcePoint" />
            <mxPoint x="-370" y="520" as="targetPoint" />
          </mxGeometry>
        </mxCell>
        <mxCell id="_CMwv9b6OU8Ad90Qr5KC-7" value="" style="endArrow=classic;html=1;rounded=0;" parent="1" source="hM7JFIb8vGbBTVGwy-LM-2" target="hM7JFIb8vGbBTVGwy-LM-3" edge="1">
          <mxGeometry width="50" height="50" relative="1" as="geometry">
            <mxPoint x="-420" y="570" as="sourcePoint" />
            <mxPoint x="-370" y="520" as="targetPoint" />
          </mxGeometry>
        </mxCell>
        <mxCell id="_CMwv9b6OU8Ad90Qr5KC-11" value="Microsoft.EntityFrameworkCore.SqlServer" style="rounded=1;whiteSpace=wrap;html=1;fillColor=#e1d5e7;strokeColor=#9673a6;" parent="1" vertex="1">
          <mxGeometry y="320" width="260" height="60" as="geometry" />
        </mxCell>
        <mxCell id="_CMwv9b6OU8Ad90Qr5KC-12" value="" style="endArrow=classic;html=1;rounded=0;strokeWidth=2;fillColor=#dae8fc;strokeColor=#6c8ebf;" parent="1" source="hM7JFIb8vGbBTVGwy-LM-3" target="_CMwv9b6OU8Ad90Qr5KC-11" edge="1">
          <mxGeometry x="0.3333" width="50" height="50" relative="1" as="geometry">
            <mxPoint x="-420" y="570" as="sourcePoint" />
            <mxPoint x="-370" y="520" as="targetPoint" />
            <mxPoint as="offset" />
          </mxGeometry>
        </mxCell>
        <mxCell id="Iy4ZUhcc4GTDMpPAjMNV-1" value="TodoListApp.Services&lt;br&gt;(Class Library)" style="rounded=1;whiteSpace=wrap;html=1;fillColor=#dae8fc;strokeColor=#6c8ebf;" parent="1" vertex="1">
          <mxGeometry x="-540" y="320" width="200" height="60" as="geometry" />
        </mxCell>
        <mxCell id="Iy4ZUhcc4GTDMpPAjMNV-2" value="TodoListApp.Services.WebApi&lt;br&gt;(Class Library)" style="rounded=1;whiteSpace=wrap;html=1;fillColor=#dae8fc;strokeColor=#6c8ebf;" parent="1" vertex="1">
          <mxGeometry x="-820" y="320" width="200" height="60" as="geometry" />
        </mxCell>
        <mxCell id="Iy4ZUhcc4GTDMpPAjMNV-4" value="" style="endArrow=classic;html=1;rounded=0;" parent="1" source="Iy4ZUhcc4GTDMpPAjMNV-2" target="_CMwv9b6OU8Ad90Qr5KC-5" edge="1">
          <mxGeometry width="50" height="50" relative="1" as="geometry">
            <mxPoint x="-490" y="430" as="sourcePoint" />
            <mxPoint x="-440" y="380" as="targetPoint" />
            <Array as="points">
              <mxPoint x="-720" y="90" />
            </Array>
          </mxGeometry>
        </mxCell>
        <mxCell id="Iy4ZUhcc4GTDMpPAjMNV-5" value="" style="endArrow=classic;html=1;rounded=0;" parent="1" source="hM7JFIb8vGbBTVGwy-LM-1" target="Iy4ZUhcc4GTDMpPAjMNV-2" edge="1">
          <mxGeometry width="50" height="50" relative="1" as="geometry">
            <mxPoint x="-490" y="430" as="sourcePoint" />
            <mxPoint x="-440" y="380" as="targetPoint" />
          </mxGeometry>
        </mxCell>
        <mxCell id="Iy4ZUhcc4GTDMpPAjMNV-6" value="" style="endArrow=classic;html=1;rounded=0;" parent="1" source="hM7JFIb8vGbBTVGwy-LM-2" target="Iy4ZUhcc4GTDMpPAjMNV-1" edge="1">
          <mxGeometry width="50" height="50" relative="1" as="geometry">
            <mxPoint x="-490" y="430" as="sourcePoint" />
            <mxPoint x="-440" y="380" as="targetPoint" />
          </mxGeometry>
        </mxCell>
        <mxCell id="Iy4ZUhcc4GTDMpPAjMNV-7" value="" style="endArrow=classic;html=1;rounded=0;" parent="1" source="hM7JFIb8vGbBTVGwy-LM-1" target="Iy4ZUhcc4GTDMpPAjMNV-1" edge="1">
          <mxGeometry width="50" height="50" relative="1" as="geometry">
            <mxPoint x="-490" y="430" as="sourcePoint" />
            <mxPoint x="-440" y="380" as="targetPoint" />
          </mxGeometry>
        </mxCell>
        <mxCell id="Iy4ZUhcc4GTDMpPAjMNV-8" value="" style="endArrow=classic;html=1;rounded=0;" parent="1" source="Iy4ZUhcc4GTDMpPAjMNV-2" target="Iy4ZUhcc4GTDMpPAjMNV-1" edge="1">
          <mxGeometry width="50" height="50" relative="1" as="geometry">
            <mxPoint x="-490" y="330" as="sourcePoint" />
            <mxPoint x="-440" y="280" as="targetPoint" />
          </mxGeometry>
        </mxCell>
        <mxCell id="Iy4ZUhcc4GTDMpPAjMNV-9" value="" style="endArrow=classic;html=1;rounded=0;" parent="1" source="hM7JFIb8vGbBTVGwy-LM-3" target="Iy4ZUhcc4GTDMpPAjMNV-1" edge="1">
          <mxGeometry width="50" height="50" relative="1" as="geometry">
            <mxPoint x="-490" y="330" as="sourcePoint" />
            <mxPoint x="-440" y="280" as="targetPoint" />
          </mxGeometry>
        </mxCell>
        <mxCell id="Iy4ZUhcc4GTDMpPAjMNV-12" value="Project Reference" style="endArrow=classic;html=1;rounded=0;" parent="1" edge="1">
          <mxGeometry y="10" width="50" height="50" relative="1" as="geometry">
            <mxPoint x="-820" y="454.64" as="sourcePoint" />
            <mxPoint x="-660" y="454.64" as="targetPoint" />
            <mxPoint as="offset" />
          </mxGeometry>
        </mxCell>
        <mxCell id="Iy4ZUhcc4GTDMpPAjMNV-13" value="NuGet Reference" style="endArrow=classic;html=1;rounded=0;fillColor=#dae8fc;strokeColor=#6c8ebf;strokeWidth=2;" parent="1" edge="1">
          <mxGeometry y="10" width="50" height="50" relative="1" as="geometry">
            <mxPoint x="-820" y="484.64" as="sourcePoint" />
            <mxPoint x="-660" y="484.64" as="targetPoint" />
            <mxPoint as="offset" />
          </mxGeometry>
        </mxCell>
        <mxCell id="td25H0sTE4Pmept_6ynM-1" value="" style="endArrow=classic;html=1;rounded=0;strokeWidth=2;fillColor=#dae8fc;strokeColor=#6c8ebf;entryX=0;entryY=0.5;entryDx=0;entryDy=0;" parent="1" source="hM7JFIb8vGbBTVGwy-LM-2" target="td25H0sTE4Pmept_6ynM-2" edge="1">
          <mxGeometry x="0.3333" width="50" height="50" relative="1" as="geometry">
            <mxPoint x="-330" y="400" as="sourcePoint" />
            <mxPoint x="-330" y="460" as="targetPoint" />
            <mxPoint as="offset" />
          </mxGeometry>
        </mxCell>
        <mxCell id="td25H0sTE4Pmept_6ynM-2" value="Microsoft.EntityFrameworkCore.Tools&lt;br&gt;(Package Manager Console tools)" style="rounded=1;whiteSpace=wrap;html=1;fillColor=#e1d5e7;strokeColor=#9673a6;" parent="1" vertex="1">
          <mxGeometry y="100" width="260" height="60" as="geometry" />
        </mxCell>
        <mxCell id="td25H0sTE4Pmept_6ynM-3" value="" style="endArrow=classic;html=1;rounded=0;strokeWidth=2;fillColor=#dae8fc;strokeColor=#6c8ebf;entryX=0;entryY=0.25;entryDx=0;entryDy=0;" parent="1" source="hM7JFIb8vGbBTVGwy-LM-2" target="_CMwv9b6OU8Ad90Qr5KC-11" edge="1">
          <mxGeometry x="0.3333" width="50" height="50" relative="1" as="geometry">
            <mxPoint x="-170" y="240" as="sourcePoint" />
            <mxPoint x="10" y="240" as="targetPoint" />
            <mxPoint as="offset" />
          </mxGeometry>
        </mxCell>
        <mxCell id="qavfjLSay3Ohw8And-gj-1" value="Microsoft.EntityFrameworkCore.Design&lt;br&gt;(.NET CLI Tools)" style="rounded=1;whiteSpace=wrap;html=1;fillColor=#e1d5e7;strokeColor=#9673a6;" parent="1" vertex="1">
          <mxGeometry y="200" width="260" height="60" as="geometry" />
        </mxCell>
        <mxCell id="qavfjLSay3Ohw8And-gj-2" value="" style="endArrow=classic;html=1;rounded=0;strokeWidth=2;fillColor=#dae8fc;strokeColor=#6c8ebf;" parent="1" source="hM7JFIb8vGbBTVGwy-LM-2" target="qavfjLSay3Ohw8And-gj-1" edge="1">
          <mxGeometry x="0.3333" width="50" height="50" relative="1" as="geometry">
            <mxPoint x="-170" y="230" as="sourcePoint" />
            <mxPoint x="10" y="213" as="targetPoint" />
            <mxPoint as="offset" />
          </mxGeometry>
        </mxCell>
      </root>
    </mxGraphModel>
  </diagram>
  <diagram id="XJHvU4czsujI-eweJfm6" name="class-diagram">
    <mxGraphModel dx="2644" dy="905" grid="1" gridSize="10" guides="1" tooltips="1" connect="1" arrows="1" fold="1" page="1" pageScale="1" pageWidth="850" pageHeight="1100" math="0" shadow="0">
      <root>
        <mxCell id="0" />
        <mxCell id="1" parent="0" />
        <mxCell id="Q3_KBSQk6tVNmqkJZnIS-8" value="" style="rounded=1;whiteSpace=wrap;html=1;fillColor=#dae8fc;dashed=1;strokeColor=#6c8ebf;" parent="1" vertex="1">
          <mxGeometry x="-500" y="300" width="240" height="120" as="geometry" />
        </mxCell>
        <mxCell id="Q3_KBSQk6tVNmqkJZnIS-7" value="" style="rounded=1;whiteSpace=wrap;html=1;fillColor=#dae8fc;dashed=1;strokeColor=#6c8ebf;" parent="1" vertex="1">
          <mxGeometry x="-200" y="300" width="240" height="120" as="geometry" />
        </mxCell>
        <mxCell id="Q3_KBSQk6tVNmqkJZnIS-9" value="" style="rounded=1;whiteSpace=wrap;html=1;fillColor=#dae8fc;dashed=1;strokeColor=#6c8ebf;" parent="1" vertex="1">
          <mxGeometry x="-500" y="120" width="540" height="120" as="geometry" />
        </mxCell>
        <mxCell id="Q3_KBSQk6tVNmqkJZnIS-1" value="«interface»&lt;br&gt;&lt;b&gt;ITodoListService&lt;br&gt;&lt;/b&gt;" style="html=1;whiteSpace=wrap;" parent="1" vertex="1">
          <mxGeometry x="-460" y="160" width="160" height="50" as="geometry" />
        </mxCell>
        <mxCell id="Q3_KBSQk6tVNmqkJZnIS-2" value="&lt;p style=&quot;margin:0px;margin-top:4px;text-align:center;&quot;&gt;&lt;b&gt;TodoListDatabaseService&lt;/b&gt;&lt;/p&gt;&lt;hr size=&quot;1&quot;&gt;&lt;div style=&quot;height:2px;&quot;&gt;&lt;/div&gt;" style="verticalAlign=top;align=left;overflow=fill;fontSize=12;fontFamily=Helvetica;html=1;whiteSpace=wrap;" parent="1" vertex="1">
          <mxGeometry x="-180" y="320" width="200" height="60" as="geometry" />
        </mxCell>
        <mxCell id="Q3_KBSQk6tVNmqkJZnIS-3" value="&lt;p style=&quot;margin:0px;margin-top:4px;text-align:center;&quot;&gt;&lt;b&gt;TodoListWebApiService&lt;/b&gt;&lt;/p&gt;" style="verticalAlign=top;align=left;overflow=fill;fontSize=12;fontFamily=Helvetica;html=1;whiteSpace=wrap;" parent="1" vertex="1">
          <mxGeometry x="-480" y="320" width="200" height="60" as="geometry" />
        </mxCell>
        <mxCell id="Q3_KBSQk6tVNmqkJZnIS-4" value="Implements" style="endArrow=block;dashed=1;endFill=0;endSize=12;html=1;rounded=0;" parent="1" source="Q3_KBSQk6tVNmqkJZnIS-2" target="Q3_KBSQk6tVNmqkJZnIS-1" edge="1">
          <mxGeometry x="-0.5243" y="-4" width="160" relative="1" as="geometry">
            <mxPoint x="-260" y="470" as="sourcePoint" />
            <mxPoint x="-100" y="470" as="targetPoint" />
            <mxPoint as="offset" />
          </mxGeometry>
        </mxCell>
        <mxCell id="Q3_KBSQk6tVNmqkJZnIS-5" value="Implements" style="endArrow=block;dashed=1;endFill=0;endSize=12;html=1;rounded=0;" parent="1" source="Q3_KBSQk6tVNmqkJZnIS-3" target="Q3_KBSQk6tVNmqkJZnIS-1" edge="1">
          <mxGeometry width="160" relative="1" as="geometry">
            <mxPoint x="-260" y="470" as="sourcePoint" />
            <mxPoint x="-100" y="470" as="targetPoint" />
          </mxGeometry>
        </mxCell>
        <mxCell id="Q3_KBSQk6tVNmqkJZnIS-16" value="&lt;p style=&quot;margin:0px;margin-top:4px;text-align:center;&quot;&gt;&lt;b&gt;TodoList&lt;/b&gt;&lt;/p&gt;&lt;hr size=&quot;1&quot;&gt;&lt;div style=&quot;height:2px;&quot;&gt;&lt;/div&gt;" style="verticalAlign=top;align=left;overflow=fill;fontSize=12;fontFamily=Helvetica;html=1;whiteSpace=wrap;" parent="1" vertex="1">
          <mxGeometry x="-180" y="155" width="200" height="60" as="geometry" />
        </mxCell>
        <mxCell id="Q3_KBSQk6tVNmqkJZnIS-17" value="Uses" style="endArrow=open;endSize=12;dashed=1;html=1;rounded=0;strokeColor=default;labelBackgroundColor=none;" parent="1" source="Q3_KBSQk6tVNmqkJZnIS-1" target="Q3_KBSQk6tVNmqkJZnIS-16" edge="1">
          <mxGeometry y="5" width="160" relative="1" as="geometry">
            <mxPoint x="-380" y="330" as="sourcePoint" />
            <mxPoint x="-220" y="330" as="targetPoint" />
            <mxPoint as="offset" />
          </mxGeometry>
        </mxCell>
        <mxCell id="Q3_KBSQk6tVNmqkJZnIS-18" value="Uses" style="endArrow=open;endSize=12;dashed=1;html=1;rounded=0;" parent="1" source="Q3_KBSQk6tVNmqkJZnIS-2" target="Q3_KBSQk6tVNmqkJZnIS-16" edge="1">
          <mxGeometry x="-0.4286" width="160" relative="1" as="geometry">
            <mxPoint x="-270" y="195" as="sourcePoint" />
            <mxPoint x="-190" y="195" as="targetPoint" />
            <mxPoint as="offset" />
          </mxGeometry>
        </mxCell>
        <mxCell id="Q3_KBSQk6tVNmqkJZnIS-19" value="Uses" style="endArrow=open;endSize=12;dashed=1;html=1;rounded=0;" parent="1" source="Q3_KBSQk6tVNmqkJZnIS-3" target="Q3_KBSQk6tVNmqkJZnIS-16" edge="1">
          <mxGeometry x="-0.5017" y="4" width="160" relative="1" as="geometry">
            <mxPoint x="-74" y="330" as="sourcePoint" />
            <mxPoint x="-86" y="225" as="targetPoint" />
            <mxPoint as="offset" />
          </mxGeometry>
        </mxCell>
        <mxCell id="Q3_KBSQk6tVNmqkJZnIS-20" value="TodoListApp.Services" style="text;html=1;strokeColor=none;fillColor=none;align=center;verticalAlign=middle;whiteSpace=wrap;rounded=0;" parent="1" vertex="1">
          <mxGeometry x="-460" y="120" width="480" height="30" as="geometry" />
        </mxCell>
        <mxCell id="Q3_KBSQk6tVNmqkJZnIS-21" value="&lt;span style=&quot;border-color: var(--border-color);&quot;&gt;TodoListApp.Services.Database&lt;/span&gt;" style="text;html=1;strokeColor=none;fillColor=none;align=center;verticalAlign=middle;whiteSpace=wrap;rounded=0;fontStyle=0" parent="1" vertex="1">
          <mxGeometry x="-180" y="390" width="200" height="30" as="geometry" />
        </mxCell>
        <mxCell id="Q3_KBSQk6tVNmqkJZnIS-23" value="TodoListApp.Services.WebApi" style="text;html=1;strokeColor=none;fillColor=none;align=center;verticalAlign=middle;whiteSpace=wrap;rounded=0;" parent="1" vertex="1">
          <mxGeometry x="-480" y="390" width="200" height="30" as="geometry" />
        </mxCell>
        <mxCell id="Q3_KBSQk6tVNmqkJZnIS-24" value="" style="rounded=1;whiteSpace=wrap;html=1;fillColor=#dae8fc;dashed=1;strokeColor=#6c8ebf;" parent="1" vertex="1">
          <mxGeometry x="-800" y="120" width="240" height="120" as="geometry" />
        </mxCell>
        <mxCell id="Q3_KBSQk6tVNmqkJZnIS-25" value="&lt;p style=&quot;margin:0px;margin-top:4px;text-align:center;&quot;&gt;&lt;b&gt;TodoListController&lt;/b&gt;&lt;/p&gt;&lt;hr size=&quot;1&quot;&gt;&lt;div style=&quot;height:2px;&quot;&gt;&lt;/div&gt;" style="verticalAlign=top;align=left;overflow=fill;fontSize=12;fontFamily=Helvetica;html=1;whiteSpace=wrap;" parent="1" vertex="1">
          <mxGeometry x="-780" y="155" width="200" height="60" as="geometry" />
        </mxCell>
        <mxCell id="Q3_KBSQk6tVNmqkJZnIS-26" value="TodoListApp.WebApp" style="text;html=1;strokeColor=none;fillColor=none;align=center;verticalAlign=middle;whiteSpace=wrap;rounded=0;" parent="1" vertex="1">
          <mxGeometry x="-780" y="120" width="200" height="30" as="geometry" />
        </mxCell>
        <mxCell id="Q3_KBSQk6tVNmqkJZnIS-28" value="" style="rounded=1;whiteSpace=wrap;html=1;fillColor=#dae8fc;dashed=1;strokeColor=#6c8ebf;" parent="1" vertex="1">
          <mxGeometry x="120" y="120" width="240" height="120" as="geometry" />
        </mxCell>
        <mxCell id="Q3_KBSQk6tVNmqkJZnIS-29" value="&lt;p style=&quot;margin:0px;margin-top:4px;text-align:center;&quot;&gt;&lt;b&gt;TodoListController&lt;/b&gt;&lt;/p&gt;&lt;hr size=&quot;1&quot;&gt;&lt;div style=&quot;height:2px;&quot;&gt;&lt;/div&gt;" style="verticalAlign=top;align=left;overflow=fill;fontSize=12;fontFamily=Helvetica;html=1;whiteSpace=wrap;" parent="1" vertex="1">
          <mxGeometry x="140" y="150" width="200" height="60" as="geometry" />
        </mxCell>
        <mxCell id="Q3_KBSQk6tVNmqkJZnIS-30" value="TodoListApp.WebApi" style="text;html=1;strokeColor=none;fillColor=none;align=center;verticalAlign=middle;whiteSpace=wrap;rounded=0;" parent="1" vertex="1">
          <mxGeometry x="140" y="120" width="200" height="30" as="geometry" />
        </mxCell>
        <mxCell id="Q3_KBSQk6tVNmqkJZnIS-33" value="Uses" style="endArrow=open;endSize=12;dashed=1;html=1;rounded=0;" parent="1" source="Q3_KBSQk6tVNmqkJZnIS-29" target="Q3_KBSQk6tVNmqkJZnIS-2" edge="1">
          <mxGeometry width="160" relative="1" as="geometry">
            <mxPoint x="-70" y="330" as="sourcePoint" />
            <mxPoint x="-70" y="225" as="targetPoint" />
          </mxGeometry>
        </mxCell>
        <mxCell id="Q3_KBSQk6tVNmqkJZnIS-34" value="Uses" style="endArrow=open;endSize=12;dashed=1;html=1;rounded=0;" parent="1" source="Q3_KBSQk6tVNmqkJZnIS-29" target="Q3_KBSQk6tVNmqkJZnIS-1" edge="1">
          <mxGeometry x="-0.8701" width="160" relative="1" as="geometry">
            <mxPoint x="130" y="360" as="sourcePoint" />
            <mxPoint x="30" y="360" as="targetPoint" />
            <Array as="points">
              <mxPoint x="240" y="80" />
              <mxPoint x="-380" y="80" />
            </Array>
            <mxPoint as="offset" />
          </mxGeometry>
        </mxCell>
        <mxCell id="Q3_KBSQk6tVNmqkJZnIS-35" value="Uses" style="endArrow=open;endSize=12;dashed=1;html=1;rounded=0;labelBackgroundColor=default;" parent="1" source="Q3_KBSQk6tVNmqkJZnIS-25" target="Q3_KBSQk6tVNmqkJZnIS-3" edge="1">
          <mxGeometry width="160" relative="1" as="geometry">
            <mxPoint x="-315" y="330" as="sourcePoint" />
            <mxPoint x="-125" y="225" as="targetPoint" />
            <mxPoint as="offset" />
          </mxGeometry>
        </mxCell>
        <mxCell id="Q3_KBSQk6tVNmqkJZnIS-36" value="Uses" style="endArrow=open;endSize=12;dashed=1;html=1;rounded=0;" parent="1" source="Q3_KBSQk6tVNmqkJZnIS-25" target="Q3_KBSQk6tVNmqkJZnIS-1" edge="1">
          <mxGeometry x="-0.2518" y="-1" width="160" relative="1" as="geometry">
            <mxPoint x="-570" y="360" as="sourcePoint" />
            <mxPoint x="-470" y="360" as="targetPoint" />
            <mxPoint as="offset" />
          </mxGeometry>
        </mxCell>
        <mxCell id="Q3_KBSQk6tVNmqkJZnIS-37" value="Uses a Web API&lt;br&gt;as a data source" style="shape=note;whiteSpace=wrap;html=1;backgroundOutline=1;darkOpacity=0.05;align=center;size=17;" parent="1" vertex="1">
          <mxGeometry x="-690" y="400" width="170" height="55" as="geometry" />
        </mxCell>
        <mxCell id="Q3_KBSQk6tVNmqkJZnIS-38" value="Uses a database&lt;br&gt;as a data source" style="shape=note;whiteSpace=wrap;html=1;backgroundOutline=1;darkOpacity=0.05;align=center;size=17;" parent="1" vertex="1">
          <mxGeometry x="60" y="400" width="170" height="55" as="geometry" />
        </mxCell>
        <mxCell id="Q3_KBSQk6tVNmqkJZnIS-39" value="" style="endArrow=none;html=1;rounded=0;" parent="1" source="Q3_KBSQk6tVNmqkJZnIS-38" target="Q3_KBSQk6tVNmqkJZnIS-2" edge="1">
          <mxGeometry width="50" height="50" relative="1" as="geometry">
            <mxPoint x="-150" y="270" as="sourcePoint" />
            <mxPoint x="-100" y="220" as="targetPoint" />
          </mxGeometry>
        </mxCell>
        <mxCell id="Q3_KBSQk6tVNmqkJZnIS-40" value="" style="endArrow=none;html=1;rounded=0;" parent="1" source="Q3_KBSQk6tVNmqkJZnIS-37" target="Q3_KBSQk6tVNmqkJZnIS-3" edge="1">
          <mxGeometry width="50" height="50" relative="1" as="geometry">
            <mxPoint x="-170" y="270" as="sourcePoint" />
            <mxPoint x="-120" y="220" as="targetPoint" />
          </mxGeometry>
        </mxCell>
      </root>
    </mxGraphModel>
  </diagram>
  <diagram id="hckCN9eYCBmb-UyHHvb-" name="sitemap">
    <mxGraphModel dx="1794" dy="939" grid="1" gridSize="10" guides="1" tooltips="1" connect="1" arrows="1" fold="1" page="1" pageScale="1" pageWidth="850" pageHeight="1100" math="0" shadow="0">
      <root>
        <mxCell id="0" />
        <mxCell id="1" parent="0" />
        <mxCell id="NhvHSEllovQ-hFTGLHVP-7" value="" style="rounded=1;whiteSpace=wrap;html=1;fillColor=#dae8fc;dashed=1;strokeColor=#6c8ebf;" parent="1" vertex="1">
          <mxGeometry x="300" y="150" width="760" height="110" as="geometry" />
        </mxCell>
        <mxCell id="t0i_2kJgdhtBT9ANVvis-2" value="List of to-do lists" style="rounded=1;whiteSpace=wrap;html=1;fillColor=#fff2cc;strokeColor=#d6b656;" parent="1" vertex="1">
          <mxGeometry x="320" y="180" width="120" height="60" as="geometry" />
        </mxCell>
        <mxCell id="t0i_2kJgdhtBT9ANVvis-3" value="Add/edit to-do list" style="rounded=1;whiteSpace=wrap;html=1;fillColor=#f8cecc;strokeColor=#b85450;" parent="1" vertex="1">
          <mxGeometry x="320" y="300" width="120" height="60" as="geometry" />
        </mxCell>
        <mxCell id="t0i_2kJgdhtBT9ANVvis-5" value="" style="endArrow=classic;startArrow=classic;html=1;rounded=0;" parent="1" source="t0i_2kJgdhtBT9ANVvis-2" target="t0i_2kJgdhtBT9ANVvis-3" edge="1">
          <mxGeometry width="50" height="50" relative="1" as="geometry">
            <mxPoint x="360" y="390" as="sourcePoint" />
            <mxPoint x="410" y="340" as="targetPoint" />
          </mxGeometry>
        </mxCell>
        <mxCell id="t0i_2kJgdhtBT9ANVvis-6" value="List of tasks" style="rounded=1;whiteSpace=wrap;html=1;fillColor=#fff2cc;strokeColor=#d6b656;" parent="1" vertex="1">
          <mxGeometry x="120" y="180" width="120" height="60" as="geometry" />
        </mxCell>
        <mxCell id="t0i_2kJgdhtBT9ANVvis-7" value="" style="endArrow=classic;startArrow=classic;html=1;rounded=0;" parent="1" source="t0i_2kJgdhtBT9ANVvis-2" target="t0i_2kJgdhtBT9ANVvis-6" edge="1">
          <mxGeometry width="50" height="50" relative="1" as="geometry">
            <mxPoint x="360" y="390" as="sourcePoint" />
            <mxPoint x="410" y="340" as="targetPoint" />
          </mxGeometry>
        </mxCell>
        <mxCell id="t0i_2kJgdhtBT9ANVvis-8" value="Task details page" style="rounded=1;whiteSpace=wrap;html=1;fillColor=#ffe6cc;strokeColor=#d79b00;" parent="1" vertex="1">
          <mxGeometry x="520" y="300" width="120" height="60" as="geometry" />
        </mxCell>
        <mxCell id="t0i_2kJgdhtBT9ANVvis-9" value="Add/edit task" style="rounded=1;whiteSpace=wrap;html=1;fillColor=#f8cecc;strokeColor=#b85450;" parent="1" vertex="1">
          <mxGeometry x="120" y="290" width="120" height="60" as="geometry" />
        </mxCell>
        <mxCell id="t0i_2kJgdhtBT9ANVvis-10" value="" style="endArrow=classic;startArrow=classic;html=1;rounded=0;" parent="1" source="t0i_2kJgdhtBT9ANVvis-6" target="t0i_2kJgdhtBT9ANVvis-9" edge="1">
          <mxGeometry width="50" height="50" relative="1" as="geometry">
            <mxPoint x="360" y="390" as="sourcePoint" />
            <mxPoint x="410" y="340" as="targetPoint" />
          </mxGeometry>
        </mxCell>
        <mxCell id="t0i_2kJgdhtBT9ANVvis-12" value="" style="endArrow=classic;startArrow=classic;html=1;rounded=0;" parent="1" source="t0i_2kJgdhtBT9ANVvis-8" target="t0i_2kJgdhtBT9ANVvis-6" edge="1">
          <mxGeometry width="50" height="50" relative="1" as="geometry">
            <mxPoint x="300" y="480" as="sourcePoint" />
            <mxPoint x="410" y="340" as="targetPoint" />
            <Array as="points">
              <mxPoint x="480" y="380" />
              <mxPoint x="280" y="380" />
              <mxPoint x="280" y="300" />
            </Array>
          </mxGeometry>
        </mxCell>
        <mxCell id="t0i_2kJgdhtBT9ANVvis-13" value="Assigned tasks" style="rounded=1;whiteSpace=wrap;html=1;fillColor=#fff2cc;strokeColor=#d6b656;" parent="1" vertex="1">
          <mxGeometry x="520" y="180" width="120" height="60" as="geometry" />
        </mxCell>
        <mxCell id="t0i_2kJgdhtBT9ANVvis-15" value="" style="endArrow=classic;html=1;rounded=0;" parent="1" source="t0i_2kJgdhtBT9ANVvis-13" target="t0i_2kJgdhtBT9ANVvis-8" edge="1">
          <mxGeometry width="50" height="50" relative="1" as="geometry">
            <mxPoint x="230" y="410" as="sourcePoint" />
            <mxPoint x="280" y="360" as="targetPoint" />
          </mxGeometry>
        </mxCell>
        <mxCell id="t0i_2kJgdhtBT9ANVvis-16" value="List of all tags" style="rounded=1;whiteSpace=wrap;html=1;fillColor=#fff2cc;strokeColor=#d6b656;" parent="1" vertex="1">
          <mxGeometry x="720" y="180" width="120" height="60" as="geometry" />
        </mxCell>
        <mxCell id="t0i_2kJgdhtBT9ANVvis-17" value="List of tasks tagged with a specific tag" style="rounded=1;whiteSpace=wrap;html=1;fillColor=#fff2cc;strokeColor=#d6b656;" parent="1" vertex="1">
          <mxGeometry x="720" y="300" width="120" height="60" as="geometry" />
        </mxCell>
        <mxCell id="t0i_2kJgdhtBT9ANVvis-18" value="" style="endArrow=classic;html=1;rounded=0;startArrow=classic;startFill=1;" parent="1" source="t0i_2kJgdhtBT9ANVvis-8" target="t0i_2kJgdhtBT9ANVvis-17" edge="1">
          <mxGeometry width="50" height="50" relative="1" as="geometry">
            <mxPoint x="230" y="600" as="sourcePoint" />
            <mxPoint x="280" y="550" as="targetPoint" />
          </mxGeometry>
        </mxCell>
        <mxCell id="t0i_2kJgdhtBT9ANVvis-19" value="" style="endArrow=classic;html=1;rounded=0;" parent="1" source="t0i_2kJgdhtBT9ANVvis-16" target="t0i_2kJgdhtBT9ANVvis-17" edge="1">
          <mxGeometry width="50" height="50" relative="1" as="geometry">
            <mxPoint x="230" y="500" as="sourcePoint" />
            <mxPoint x="280" y="450" as="targetPoint" />
          </mxGeometry>
        </mxCell>
        <mxCell id="NhvHSEllovQ-hFTGLHVP-1" value="Sign-up Page" style="rounded=1;whiteSpace=wrap;html=1;" parent="1" vertex="1">
          <mxGeometry x="720" y="40" width="120" height="60" as="geometry" />
        </mxCell>
        <mxCell id="NhvHSEllovQ-hFTGLHVP-2" value="Sign-in Page" style="rounded=1;whiteSpace=wrap;html=1;" parent="1" vertex="1">
          <mxGeometry x="520" y="40" width="120" height="60" as="geometry" />
        </mxCell>
        <mxCell id="NhvHSEllovQ-hFTGLHVP-3" value="" style="endArrow=classic;html=1;rounded=0;" parent="1" source="NhvHSEllovQ-hFTGLHVP-2" target="t0i_2kJgdhtBT9ANVvis-13" edge="1">
          <mxGeometry width="50" height="50" relative="1" as="geometry">
            <mxPoint x="780" y="210" as="sourcePoint" />
            <mxPoint x="830" y="160" as="targetPoint" />
          </mxGeometry>
        </mxCell>
        <mxCell id="NhvHSEllovQ-hFTGLHVP-5" value="" style="endArrow=classic;html=1;rounded=0;" parent="1" source="NhvHSEllovQ-hFTGLHVP-2" target="NhvHSEllovQ-hFTGLHVP-1" edge="1">
          <mxGeometry width="50" height="50" relative="1" as="geometry">
            <mxPoint x="780" y="210" as="sourcePoint" />
            <mxPoint x="830" y="160" as="targetPoint" />
          </mxGeometry>
        </mxCell>
        <mxCell id="NhvHSEllovQ-hFTGLHVP-8" value="Add/edit comment" style="rounded=1;whiteSpace=wrap;html=1;fillColor=#f8cecc;strokeColor=#b85450;" parent="1" vertex="1">
          <mxGeometry x="620" y="420" width="120" height="60" as="geometry" />
        </mxCell>
        <mxCell id="NhvHSEllovQ-hFTGLHVP-10" value="" style="endArrow=classic;startArrow=classic;html=1;rounded=0;" parent="1" source="t0i_2kJgdhtBT9ANVvis-8" target="NhvHSEllovQ-hFTGLHVP-8" edge="1">
          <mxGeometry width="50" height="50" relative="1" as="geometry">
            <mxPoint x="660" y="350" as="sourcePoint" />
            <mxPoint x="750" y="500" as="targetPoint" />
          </mxGeometry>
        </mxCell>
        <mxCell id="NhvHSEllovQ-hFTGLHVP-11" value="Add tag" style="rounded=1;whiteSpace=wrap;html=1;fillColor=#f8cecc;strokeColor=#b85450;" parent="1" vertex="1">
          <mxGeometry x="420" y="420" width="120" height="60" as="geometry" />
        </mxCell>
        <mxCell id="NhvHSEllovQ-hFTGLHVP-13" value="" style="endArrow=classic;startArrow=classic;html=1;rounded=0;" parent="1" source="NhvHSEllovQ-hFTGLHVP-11" target="t0i_2kJgdhtBT9ANVvis-8" edge="1">
          <mxGeometry width="50" height="50" relative="1" as="geometry">
            <mxPoint x="660" y="350" as="sourcePoint" />
            <mxPoint x="710" y="300" as="targetPoint" />
          </mxGeometry>
        </mxCell>
        <mxCell id="NhvHSEllovQ-hFTGLHVP-14" value="" style="endArrow=classic;html=1;rounded=0;" parent="1" source="NhvHSEllovQ-hFTGLHVP-1" target="t0i_2kJgdhtBT9ANVvis-13" edge="1">
          <mxGeometry width="50" height="50" relative="1" as="geometry">
            <mxPoint x="660" y="350" as="sourcePoint" />
            <mxPoint x="710" y="300" as="targetPoint" />
          </mxGeometry>
        </mxCell>
        <mxCell id="NhvHSEllovQ-hFTGLHVP-15" value="Search page" style="rounded=1;whiteSpace=wrap;html=1;" parent="1" vertex="1">
          <mxGeometry x="920" y="180" width="120" height="60" as="geometry" />
        </mxCell>
        <mxCell id="NhvHSEllovQ-hFTGLHVP-18" value="Menu" style="text;html=1;strokeColor=none;fillColor=none;align=center;verticalAlign=middle;whiteSpace=wrap;rounded=0;" parent="1" vertex="1">
          <mxGeometry x="310" y="150" width="60" height="30" as="geometry" />
        </mxCell>
        <mxCell id="NhvHSEllovQ-hFTGLHVP-48" value="Search results page&lt;br&gt;(list)" style="rounded=1;whiteSpace=wrap;html=1;fillColor=#fff2cc;strokeColor=#d6b656;" parent="1" vertex="1">
          <mxGeometry x="920" y="300" width="120" height="60" as="geometry" />
        </mxCell>
        <mxCell id="NhvHSEllovQ-hFTGLHVP-49" value="" style="endArrow=classic;html=1;rounded=0;" parent="1" source="NhvHSEllovQ-hFTGLHVP-15" target="NhvHSEllovQ-hFTGLHVP-48" edge="1">
          <mxGeometry width="50" height="50" relative="1" as="geometry">
            <mxPoint x="670" y="380" as="sourcePoint" />
            <mxPoint x="720" y="330" as="targetPoint" />
          </mxGeometry>
        </mxCell>
        <mxCell id="NhvHSEllovQ-hFTGLHVP-50" value="" style="endArrow=classic;html=1;rounded=0;" parent="1" source="NhvHSEllovQ-hFTGLHVP-48" target="t0i_2kJgdhtBT9ANVvis-8" edge="1">
          <mxGeometry width="50" height="50" relative="1" as="geometry">
            <mxPoint x="580" y="380" as="sourcePoint" />
            <mxPoint x="630" y="330" as="targetPoint" />
            <Array as="points">
              <mxPoint x="980" y="380" />
              <mxPoint x="680" y="380" />
            </Array>
          </mxGeometry>
        </mxCell>
      </root>
    </mxGraphModel>
  </diagram>
  <diagram id="d4tzxNpj0WTFb2eudnHg" name="Page-3">
    <mxGraphModel dx="2644" dy="939" grid="1" gridSize="10" guides="1" tooltips="1" connect="1" arrows="1" fold="1" page="1" pageScale="1" pageWidth="850" pageHeight="1100" math="0" shadow="0">
      <root>
        <mxCell id="0" />
        <mxCell id="1" parent="0" />
        <mxCell id="Vn7VGmAsOeebM9h5mY0w-1" value=":TodoListController" style="shape=umlLifeline;perimeter=lifelinePerimeter;whiteSpace=wrap;html=1;container=1;dropTarget=0;collapsible=0;recursiveResize=0;outlineConnect=0;portConstraint=eastwest;newEdgeStyle={&quot;edgeStyle&quot;:&quot;elbowEdgeStyle&quot;,&quot;elbow&quot;:&quot;vertical&quot;,&quot;curved&quot;:0,&quot;rounded&quot;:0};" parent="1" vertex="1">
          <mxGeometry x="40" y="40" width="140" height="300" as="geometry" />
        </mxCell>
        <mxCell id="Vn7VGmAsOeebM9h5mY0w-8" value="" style="html=1;points=[];perimeter=orthogonalPerimeter;outlineConnect=0;targetShapes=umlLifeline;portConstraint=eastwest;newEdgeStyle={&quot;edgeStyle&quot;:&quot;elbowEdgeStyle&quot;,&quot;elbow&quot;:&quot;vertical&quot;,&quot;curved&quot;:0,&quot;rounded&quot;:0};" parent="Vn7VGmAsOeebM9h5mY0w-1" vertex="1">
          <mxGeometry x="65" y="80" width="10" height="200" as="geometry" />
        </mxCell>
        <mxCell id="Vn7VGmAsOeebM9h5mY0w-2" value=":TodoListRepository" style="shape=umlLifeline;perimeter=lifelinePerimeter;whiteSpace=wrap;html=1;container=1;dropTarget=0;collapsible=0;recursiveResize=0;outlineConnect=0;portConstraint=eastwest;newEdgeStyle={&quot;edgeStyle&quot;:&quot;elbowEdgeStyle&quot;,&quot;elbow&quot;:&quot;vertical&quot;,&quot;curved&quot;:0,&quot;rounded&quot;:0};" parent="1" vertex="1">
          <mxGeometry x="240" y="40" width="140" height="300" as="geometry" />
        </mxCell>
        <mxCell id="Vn7VGmAsOeebM9h5mY0w-3" value=":TodoListController" style="shape=umlLifeline;perimeter=lifelinePerimeter;whiteSpace=wrap;html=1;container=1;dropTarget=0;collapsible=0;recursiveResize=0;outlineConnect=0;portConstraint=eastwest;newEdgeStyle={&quot;edgeStyle&quot;:&quot;elbowEdgeStyle&quot;,&quot;elbow&quot;:&quot;vertical&quot;,&quot;curved&quot;:0,&quot;rounded&quot;:0};" parent="1" vertex="1">
          <mxGeometry x="520" y="40" width="140" height="300" as="geometry" />
        </mxCell>
        <mxCell id="Vn7VGmAsOeebM9h5mY0w-4" value=":TodoListRepository" style="shape=umlLifeline;perimeter=lifelinePerimeter;whiteSpace=wrap;html=1;container=1;dropTarget=0;collapsible=0;recursiveResize=0;outlineConnect=0;portConstraint=eastwest;newEdgeStyle={&quot;edgeStyle&quot;:&quot;elbowEdgeStyle&quot;,&quot;elbow&quot;:&quot;vertical&quot;,&quot;curved&quot;:0,&quot;rounded&quot;:0};" parent="1" vertex="1">
          <mxGeometry x="720" y="40" width="140" height="300" as="geometry" />
        </mxCell>
        <mxCell id="Vn7VGmAsOeebM9h5mY0w-10" value="" style="shape=umlLifeline;perimeter=lifelinePerimeter;whiteSpace=wrap;html=1;container=1;dropTarget=0;collapsible=0;recursiveResize=0;outlineConnect=0;portConstraint=eastwest;newEdgeStyle={&quot;edgeStyle&quot;:&quot;elbowEdgeStyle&quot;,&quot;elbow&quot;:&quot;vertical&quot;,&quot;curved&quot;:0,&quot;rounded&quot;:0};participant=umlActor;" parent="1" vertex="1">
          <mxGeometry x="-40" y="40" width="20" height="300" as="geometry" />
        </mxCell>
        <mxCell id="Vn7VGmAsOeebM9h5mY0w-11" value="GET /TodoListController" style="html=1;verticalAlign=bottom;endArrow=block;edgeStyle=elbowEdgeStyle;elbow=vertical;curved=0;rounded=0;" parent="1" target="Vn7VGmAsOeebM9h5mY0w-1" edge="1">
          <mxGeometry width="80" relative="1" as="geometry">
            <mxPoint x="-30" y="120" as="sourcePoint" />
            <mxPoint x="50" y="120" as="targetPoint" />
          </mxGeometry>
        </mxCell>
      </root>
    </mxGraphModel>
  </diagram>
</mxfile>
